<svg xmlns="http://www.w3.org/2000/svg" xmlns:xlink="http://www.w3.org/1999/xlink" width="100" height="100" viewBox="0 0 100 100" fill="none">
<path d="M95 50C95 74.8528 74.8528 95 50 95C25.1472 95 5 74.8528 5 50C5 25.1472 25.1472 5 50 5C74.8528 5 95 25.1472 95 50ZM14 50C14 69.8822 30.1177 86 50 86C69.8822 86 86 69.8822 86 50C86 30.1177 69.8822 14 50 14C30.1177 14 14 30.1177 14 50Z" fill-rule="evenodd"  fill="#EA5353" >
</path>
<path d="M78 50.5C78 65.6878 65.6878 78 50.5 78C35.3122 78 23 65.6878 23 50.5C23 35.3122 35.3122 23 50.5 23C65.6878 23 78 35.3122 78 50.5Z"   fill="#EA5353" >
</path>
</svg>
