<svg xmlns="http://www.w3.org/2000/svg" xmlns:xlink="http://www.w3.org/1999/xlink" width="100" height="100" viewBox="0 0 100 100" fill="none">
<path d="M95 50C95 74.8528 74.8528 95 50 95C25.1472 95 5 74.8528 5 50C5 25.1472 25.1472 5 50 5C74.8528 5 95 25.1472 95 50ZM9.5 50C9.5 72.3675 27.6325 90.5 50 90.5C72.3675 90.5 90.5 72.3675 90.5 50C90.5 27.6325 72.3675 9.5 50 9.5C27.6325 9.5 9.5 27.6325 9.5 50Z"   fill="#EA5353" >
</path>
<path d="M86 50C86 69.8822 69.8822 86 50 86C30.1177 86 14 69.8822 14 50C14 30.1177 30.1177 14 50 14C69.8822 14 86 30.1177 86 50ZM21.2 50C21.2 65.9058 34.0942 78.8 50 78.8C65.9058 78.8 78.8 65.9058 78.8 50C78.8 34.0942 65.9058 21.2 50 21.2C34.0942 21.2 21.2 34.0942 21.2 50Z"   fill="#EA5353" >
</path>
</svg>
