<svg xmlns="http://www.w3.org/2000/svg" xmlns:xlink="http://www.w3.org/1999/xlink" width="214" height="32" viewBox="0 0 214 32" fill="none">
<g >
<path     fill="#EA5353"  d="M5.184 24.84L8.568 24.84L8.568 17.712C8.568 15.672 8.256 13.44 8.112 11.52L8.232 11.52L10.032 15.336L15.144 24.84L18.768 24.84L18.768 7.056L15.408 7.056L15.408 14.16C15.408 16.176 15.696 18.528 15.888 20.376L15.768 20.376L13.968 16.536L8.808 7.056L5.184 7.056L5.184 24.84ZM67.512 24.84L73.848 24.84C77.76 24.84 80.712 23.184 80.712 19.608C80.712 17.232 79.32 15.864 77.4 15.408L77.4 15.312C78.912 14.76 79.824 13.104 79.824 11.448C79.824 8.136 77.04 7.056 73.392 7.056L67.512 7.056L67.512 24.84ZM71.064 14.304L71.064 9.792L73.176 9.792C75.312 9.792 76.368 10.416 76.368 11.976C76.368 13.392 75.408 14.304 73.152 14.304L71.064 14.304ZM71.064 22.104L71.064 16.92L73.536 16.92C75.984 16.92 77.256 17.664 77.256 19.392C77.256 21.24 75.936 22.104 73.536 22.104L71.064 22.104ZM114.925 24.84L119.989 24.84C125.245 24.84 128.581 21.864 128.581 15.864C128.581 9.888 125.245 7.056 119.797 7.056L114.925 7.056L114.925 24.84ZM118.477 21.96L118.477 9.912L119.557 9.912C122.893 9.912 124.957 11.544 124.957 15.864C124.957 20.184 122.893 21.96 119.557 21.96L118.477 21.96Z">
</path>
<path     fill="#FFFFFF"  d="M28.488 25.176C31.848 25.176 34.944 22.584 34.944 18.12C34.944 13.656 31.848 11.064 28.488 11.064C25.104 11.064 22.032 13.656 22.032 18.12C22.032 22.584 25.104 25.176 28.488 25.176ZM28.488 22.296C26.64 22.296 25.632 20.664 25.632 18.12C25.632 15.6 26.64 13.944 28.488 13.944C30.312 13.944 31.344 15.6 31.344 18.12C31.344 20.664 30.312 22.296 28.488 22.296ZM37.896 24.84L41.424 24.84L41.424 15.6C42.408 14.616 43.128 14.088 44.208 14.088C45.528 14.088 46.104 14.808 46.104 16.896L46.104 24.84L49.632 24.84L49.632 16.464C49.632 13.08 48.384 11.064 45.48 11.064C43.656 11.064 42.288 12.024 41.112 13.176L41.04 13.176L40.776 11.4L37.896 11.4L37.896 24.84ZM59.136 25.176C60.792 25.176 62.496 24.6 63.816 23.688L62.616 21.528C61.632 22.128 60.696 22.44 59.616 22.44C57.6 22.44 56.16 21.312 55.872 19.128L64.152 19.128C64.248 18.792 64.32 18.144 64.32 17.496C64.32 13.752 62.4 11.064 58.704 11.064C55.512 11.064 52.44 13.776 52.44 18.12C52.44 22.56 55.368 25.176 59.136 25.176ZM55.8 16.752C56.088 14.808 57.336 13.8 58.752 13.8C60.504 13.8 61.296 14.952 61.296 16.752L55.8 16.752ZM89.184 25.176C92.544 25.176 95.64 22.584 95.64 18.12C95.64 13.656 92.544 11.064 89.184 11.064C85.8 11.064 82.728 13.656 82.728 18.12C82.728 22.584 85.8 25.176 89.184 25.176ZM89.184 22.296C87.336 22.296 86.328 20.664 86.328 18.12C86.328 15.6 87.336 13.944 89.184 13.944C91.008 13.944 92.04 15.6 92.04 18.12C92.04 20.664 91.008 22.296 89.184 22.296ZM103.512 25.176C104.688 25.176 105.624 24.888 106.368 24.672L105.768 22.104C105.408 22.248 104.88 22.392 104.448 22.392C103.248 22.392 102.6 21.672 102.6 20.136L102.6 14.184L105.936 14.184L105.936 11.4L102.6 11.4L102.6 7.776L99.696 7.776L99.288 11.4L97.2 11.568L97.2 14.184L99.096 14.184L99.096 20.16C99.096 23.136 100.32 25.176 103.512 25.176ZM137.629 25.176C139.285 25.176 140.989 24.6 142.309 23.688L141.109 21.528C140.125 22.128 139.189 22.44 138.109 22.44C136.093 22.44 134.653 21.312 134.365 19.128L142.645 19.128C142.741 18.792 142.813 18.144 142.813 17.496C142.813 13.752 140.893 11.064 137.197 11.064C134.005 11.064 130.933 13.776 130.933 18.12C130.933 22.56 133.861 25.176 137.629 25.176ZM134.293 16.752C134.581 14.808 135.829 13.8 137.245 13.8C138.997 13.8 139.789 14.952 139.789 16.752L134.293 16.752ZM149.557 25.176C153.037 25.176 154.909 23.304 154.909 20.928C154.909 18.456 152.941 17.544 151.165 16.872C149.725 16.344 148.501 15.984 148.501 15C148.501 14.232 149.077 13.704 150.301 13.704C151.285 13.704 152.221 14.184 153.181 14.856L154.765 12.72C153.661 11.856 152.149 11.064 150.205 11.064C147.133 11.064 145.189 12.768 145.189 15.168C145.189 17.424 147.085 18.456 148.789 19.104C150.205 19.656 151.597 20.112 151.597 21.12C151.597 21.96 150.997 22.536 149.653 22.536C148.381 22.536 147.253 21.984 146.053 21.072L144.445 23.304C145.789 24.408 147.757 25.176 149.557 25.176ZM157.597 24.84L161.077 24.84L161.077 21.432L162.949 19.248L166.213 24.84L170.053 24.84L165.013 16.944L169.621 11.4L165.757 11.4L161.173 17.16L161.077 17.16L161.077 5.688L157.597 5.688L157.597 24.84ZM177.013 25.176C178.189 25.176 179.125 24.888 179.869 24.672L179.269 22.104C178.909 22.248 178.381 22.392 177.949 22.392C176.749 22.392 176.101 21.672 176.101 20.136L176.101 14.184L179.437 14.184L179.437 11.4L176.101 11.4L176.101 7.776L173.197 7.776L172.789 11.4L170.701 11.568L170.701 14.184L172.597 14.184L172.597 20.16C172.597 23.136 173.821 25.176 177.013 25.176ZM187.813 25.176C191.173 25.176 194.269 22.584 194.269 18.12C194.269 13.656 191.173 11.064 187.813 11.064C184.429 11.064 181.357 13.656 181.357 18.12C181.357 22.584 184.429 25.176 187.813 25.176ZM187.813 22.296C185.965 22.296 184.957 20.664 184.957 18.12C184.957 15.6 185.965 13.944 187.813 13.944C189.637 13.944 190.669 15.6 190.669 18.12C190.669 20.664 189.637 22.296 187.813 22.296ZM197.221 30L200.749 30L200.749 25.896L200.629 23.712C201.637 24.648 202.789 25.176 203.965 25.176C206.917 25.176 209.677 22.512 209.677 17.904C209.677 13.776 207.685 11.064 204.397 11.064C202.933 11.064 201.565 11.832 200.437 12.792L200.365 12.792L200.101 11.4L197.221 11.4L197.221 30ZM203.197 22.272C202.453 22.272 201.613 22.008 200.749 21.264L200.749 15.336C201.661 14.424 202.477 13.968 203.389 13.968C205.237 13.968 206.053 15.384 206.053 17.952C206.053 20.88 204.781 22.272 203.197 22.272Z">
</path>
</g>
</svg>
